<svg version="1.1" id="Layer_1" xmlns="http://www.w3.org/2000/svg" xmlns:xlink="http://www.w3.org/1999/xlink" x="0px" y="0px"
	 width="100%" viewBox="0 0 2610 1000" enable-background="new 0 0 2610 1000" xml:space="preserve">
<path fill="#0D1117" opacity="1.000000" stroke="none" 
	d="
M1820.000000,1001.000000 
	C1213.333374,1001.000000 607.166687,1001.000000 1.000000,1001.000000 
	C1.000000,667.666687 1.000000,334.333344 1.000000,1.000000 
	C871.000000,1.000000 1741.000000,1.000000 2611.000000,1.000000 
	C2611.000000,334.333344 2611.000000,667.666687 2611.000000,1001.000000 
	C2347.500000,1001.000000 2084.000000,1001.000000 1820.000000,1001.000000 
M691.299316,367.071259 
	C692.271973,365.770508 693.143799,364.377777 694.233154,363.183472 
	C704.008362,352.466034 703.838989,335.621124 697.281860,324.836273 
	C688.846924,310.962860 668.353333,306.397583 654.221985,315.119354 
	C653.471558,315.582489 652.358215,315.457550 651.070129,315.014282 
	C650.737183,314.645874 650.472839,314.151489 650.061340,313.927185 
	C632.718994,304.473511 614.343079,298.179535 594.647156,296.045685 
	C588.912964,295.424469 583.152527,294.804932 577.394470,294.695953 
	C566.109436,294.482361 554.815369,294.762390 543.529663,294.569000 
	C537.821716,294.471222 532.123962,293.786316 526.302490,292.651642 
	C521.068726,282.134979 516.469360,271.237183 510.438812,261.199188 
	C503.087280,248.962341 495.497498,236.622177 486.256531,225.828568 
	C474.422638,212.006393 461.016968,199.581039 443.854767,191.958160 
	C426.473541,184.238022 408.410217,180.990479 389.855865,184.641693 
	C372.297424,188.096893 356.499115,196.271759 343.208618,208.410065 
	C330.359680,220.145065 318.314575,232.817780 309.461029,247.894028 
	C301.144318,262.056061 293.976685,276.889832 286.068024,291.298828 
	C285.155579,292.961212 282.735413,293.796082 280.099976,294.874176 
	C274.976166,294.307190 269.863892,293.446106 264.725739,293.244507 
	C257.638092,292.966370 250.527405,293.056122 243.433548,293.247040 
	C239.869598,293.342987 236.321030,294.010651 232.322723,293.892273 
	C231.965820,293.308197 231.608917,292.724121 231.497421,291.750519 
	C231.468994,291.376373 231.267120,291.182281 230.400375,290.714294 
	C229.444199,289.790558 228.454254,288.899078 227.536896,287.938293 
	C211.320679,270.954376 182.001312,278.124176 174.569427,301.241547 
	C174.289993,301.512665 174.244843,301.818451 174.378311,302.999939 
	C174.034988,304.936279 173.691650,306.872650 172.653305,308.436279 
	C167.226318,311.315582 161.570007,313.839996 156.428970,317.161835 
	C149.620712,321.560974 144.103012,327.356567 138.600815,333.452759 
	C125.770187,347.668549 118.807098,364.209991 117.293900,382.797028 
	C116.424873,393.471436 116.126480,404.466522 119.826996,415.069092 
	C124.085808,427.271332 126.730377,440.147430 132.027634,451.847229 
	C137.873978,464.759766 145.889343,476.696045 153.054001,489.002808 
	C155.647278,493.457275 158.512573,497.753387 160.777802,502.619263 
	C157.358032,507.636444 154.063843,512.744934 150.494476,517.653381 
	C140.621887,531.229797 133.127914,546.084229 127.162010,561.683594 
	C121.072304,577.606628 116.684395,594.006409 117.341751,611.253784 
	C117.590385,617.777283 118.684135,624.307007 119.854881,630.749939 
	C123.840492,652.683594 136.036865,669.361755 153.758499,682.236877 
	C179.045990,700.608765 208.522247,705.931335 238.656601,707.870544 
	C253.643524,708.835022 268.797821,707.198547 284.477905,707.159912 
	C285.863434,710.258240 287.078735,713.446716 288.663055,716.439880 
	C296.906403,732.013245 304.497559,747.877991 315.195129,762.138489 
	C326.389832,777.061646 338.674927,790.789001 353.924622,801.406372 
	C369.178253,812.026489 386.349091,818.786865 405.171082,818.381042 
	C419.850250,818.064453 434.427704,815.307434 447.389038,807.665344 
	C453.835052,803.864624 459.769348,799.196045 466.773529,795.049255 
	C474.882660,796.266846 482.749176,799.059570 491.154388,795.106445 
	C500.610901,790.658997 507.902771,784.830078 510.189697,774.160034 
	C511.889313,766.230042 512.051208,758.465271 508.191742,750.953369 
	C507.452240,749.514099 507.779724,747.526611 507.847290,745.122253 
	C514.038208,732.483337 520.229187,719.844421 527.125732,706.952454 
	C528.205078,706.677246 529.308472,706.094482 530.359863,706.176758 
	C537.094604,706.703369 543.812439,707.807190 550.546204,707.890930 
	C558.818542,707.993835 567.099609,707.021179 575.379150,706.980652 
	C593.887634,706.890015 611.708740,703.317200 629.065063,697.103882 
	C647.212341,690.607422 663.243103,681.259094 675.765442,665.974426 
	C688.191528,650.807251 693.980835,633.458496 694.711670,614.409363 
	C695.055908,605.437500 693.232361,596.360962 692.150330,587.360779 
	C690.284119,571.837341 684.283630,557.610840 677.180908,543.952942 
	C671.087952,532.236694 663.901123,521.087585 657.145874,509.718689 
	C655.188416,506.424377 653.050720,503.237122 651.154724,499.336487 
	C653.819885,496.033752 657.009705,493.025604 659.058411,489.376740 
	C667.383850,474.548157 676.064331,459.854370 683.285156,444.486542 
	C692.309387,425.280792 695.947510,404.651703 694.756042,383.407288 
	C694.460144,378.130463 692.468140,372.948792 691.299316,367.071259 
M906.606750,474.499573 
	C906.606750,534.928589 906.606750,595.357544 906.606750,655.645081 
	C919.119934,655.645081 931.024109,655.645081 943.273926,655.645081 
	C943.273926,618.364563 943.273926,581.440125 943.273926,544.201965 
	C945.257690,544.201965 946.898987,544.202820 948.540283,544.201782 
	C970.205688,544.188416 991.879700,544.537659 1013.533142,544.022461 
	C1026.142944,543.722351 1038.843628,542.802734 1051.281616,540.790955 
	C1068.860596,537.947693 1085.023438,531.439270 1096.661987,516.980835 
	C1116.734131,492.045074 1121.208374,463.844025 1112.126343,433.738525 
	C1104.033691,406.912415 1085.474487,390.364594 1057.859863,385.175690 
	C1045.487427,382.850830 1032.768677,381.523102 1020.183411,381.336426 
	C983.526306,380.792694 946.857300,381.051147 910.192932,381.007782 
	C909.091919,381.006470 907.990845,381.146942 906.606750,381.240417 
	C906.606750,412.209198 906.606750,442.854340 906.606750,474.499573 
M1158.254883,612.499878 
	C1158.254883,626.931274 1158.254883,641.362671 1158.254883,655.796997 
	C1169.853882,655.796997 1180.799072,655.796997 1192.154297,655.796997 
	C1192.154297,653.977661 1192.154297,652.359253 1192.154297,650.740845 
	C1192.154297,629.912537 1192.043213,609.083374 1192.186890,588.256104 
	C1192.318970,569.104492 1192.430420,549.944092 1193.131226,530.808777 
	C1193.499634,520.751038 1195.978638,510.896637 1202.192383,502.685272 
	C1215.711426,484.820190 1234.163086,478.951202 1255.680908,482.513916 
	C1271.650146,485.157898 1281.440063,495.177673 1284.755493,510.896240 
	C1286.220703,517.842102 1286.772583,525.093018 1286.806030,532.209839 
	C1286.991211,571.532837 1286.888794,610.857178 1286.884888,650.181091 
	C1286.884644,651.972961 1286.884766,653.764832 1286.884766,655.730896 
	C1298.301758,655.730896 1309.356079,655.730896 1320.787720,655.730896 
	C1320.787720,654.330627 1320.788818,653.200256 1320.787598,652.069824 
	C1320.745483,611.246338 1320.794189,570.422302 1320.584961,529.599670 
	C1320.542358,521.295288 1319.933350,512.943848 1318.873291,504.705750 
	C1317.018921,490.294373 1311.776611,477.513763 1300.240356,467.761505 
	C1276.353516,447.568451 1225.680054,444.714325 1197.253662,474.464600 
	C1195.853271,475.930206 1194.345337,477.293213 1192.048462,479.515961 
	C1192.048462,445.868530 1192.048462,413.622681 1192.048462,381.316528 
	C1180.657349,381.316528 1169.608032,381.316528 1158.254883,381.316528 
	C1158.254883,458.258087 1158.254883,534.878906 1158.254883,612.499878 
M2331.997559,613.500000 
	C2331.997559,627.595398 2331.997559,641.690796 2331.997559,655.659485 
	C2343.648193,655.659485 2354.710938,655.659485 2365.850586,655.659485 
	C2365.850586,620.335876 2365.791748,585.355103 2365.898682,550.374817 
	C2365.921143,543.059998 2366.250977,535.717224 2366.962891,528.438477 
	C2369.644287,501.016785 2388.211426,483.250702 2415.709473,481.512329 
	C2439.933105,479.980896 2455.089600,491.736572 2459.216553,515.705139 
	C2460.197998,521.404358 2460.276611,527.307861 2460.283936,533.118103 
	C2460.334229,572.278992 2460.253418,611.440063 2460.215820,650.601074 
	C2460.214111,652.346252 2460.215576,654.091492 2460.215576,655.764221 
	C2471.898682,655.764221 2482.840820,655.764221 2494.116699,655.764221 
	C2494.116699,654.399841 2494.116699,653.270935 2494.116455,652.141968 
	C2494.104004,610.647949 2494.141357,569.153809 2494.028809,527.660034 
	C2494.010742,521.011230 2493.565186,514.339905 2492.900635,507.720856 
	C2490.701416,485.813324 2481.213379,468.536987 2460.297119,459.401367 
	C2439.740967,450.423096 2418.628418,450.021423 2397.458984,457.274475 
	C2385.279053,461.447662 2375.400879,469.205383 2365.959473,479.429749 
	C2365.959473,445.990295 2365.959473,413.643433 2365.959473,381.295837 
	C2354.331787,381.295837 2343.268311,381.295837 2331.997559,381.295837 
	C2331.997559,458.562836 2331.997559,535.531433 2331.997559,613.500000 
M1707.361816,568.154968 
	C1700.662231,558.681335 1691.453979,552.490051 1680.611938,549.037170 
	C1662.884766,543.391724 1644.943237,538.422607 1627.174072,532.904175 
	C1617.848633,530.007996 1608.142212,527.604919 1599.595825,523.103271 
	C1586.390869,516.147766 1584.898438,500.598633 1595.909058,490.497192 
	C1599.564819,487.143219 1604.399658,484.534424 1609.152832,483.023468 
	C1620.924316,479.281586 1633.139526,479.136932 1645.232788,481.351440 
	C1657.354370,483.571136 1666.905029,489.753601 1672.040527,501.413940 
	C1673.619629,504.999329 1674.518433,508.884247 1675.785767,512.808472 
	C1686.466797,511.312317 1697.230347,509.804596 1707.939209,508.304535 
	C1706.385132,484.602142 1692.326416,466.795837 1669.799316,458.831055 
	C1656.906616,454.272705 1643.608276,452.424500 1630.082397,452.410675 
	C1612.520752,452.392731 1595.503296,455.415771 1580.511475,465.214783 
	C1546.685791,487.324188 1548.033203,537.364075 1583.727051,554.221191 
	C1597.286987,560.625122 1612.144775,564.347656 1626.529419,568.919434 
	C1639.819458,573.143311 1653.504150,576.221191 1666.581665,580.991821 
	C1680.130859,585.934631 1684.896362,599.136780 1678.770020,612.036255 
	C1674.800293,620.394531 1668.172974,626.093689 1659.427368,629.050842 
	C1645.155151,633.876831 1630.650635,634.041504 1616.131714,630.293701 
	C1600.429443,626.240356 1590.618164,616.014282 1585.973755,600.653015 
	C1585.068604,597.659180 1584.428589,594.585144 1583.606567,591.310486 
	C1572.577515,593.029541 1561.684570,594.727417 1550.509155,596.469360 
	C1551.068237,599.200256 1551.440308,601.488770 1552.010010,603.726868 
	C1558.806396,630.428955 1574.039062,649.528259 1601.608032,656.257019 
	C1612.182251,658.837891 1623.286621,659.947449 1634.195801,660.303223 
	C1654.022339,660.949951 1672.918335,656.899963 1689.742920,645.634644 
	C1715.526245,628.370911 1723.641724,593.820679 1707.361816,568.154968 
M2055.629639,555.901428 
	C2067.933350,559.954346 2080.181641,564.186157 2092.555176,568.013855 
	C2107.152344,572.529419 2122.033691,576.187012 2136.457764,581.181824 
	C2147.054932,584.851501 2151.598877,593.461853 2150.103027,604.496948 
	C2148.401123,617.050110 2140.354492,624.666016 2129.091797,628.890137 
	C2116.301758,633.687012 2103.009033,633.799622 2089.687012,631.311340 
	C2070.415771,627.711853 2058.936279,615.941162 2054.255127,597.167786 
	C2053.786621,595.288452 2053.434814,593.380005 2052.991455,591.310730 
	C2041.773315,593.050964 2030.990723,594.723572 2019.811890,596.457642 
	C2020.259033,598.709167 2020.567505,600.645996 2021.032471,602.544495 
	C2027.016113,626.968750 2039.742432,646.103760 2064.543457,654.345032 
	C2089.698242,662.704102 2115.326904,663.112976 2140.642334,654.751831 
	C2157.511719,649.180237 2170.892822,638.983154 2179.142578,622.723694 
	C2188.414062,604.450745 2188.817139,575.488464 2168.336426,559.398682 
	C2162.312012,554.665833 2155.129150,550.802063 2147.864014,548.374084 
	C2129.904053,542.372009 2111.551758,537.553955 2093.434082,532.008911 
	C2085.202393,529.489441 2076.638428,527.336487 2069.132812,523.320435 
	C2055.572998,516.064941 2054.170654,500.214478 2065.676270,489.996857 
	C2068.944336,487.094574 2073.034668,484.594330 2077.181885,483.303680 
	C2089.620850,479.432495 2102.455811,478.917511 2115.214844,481.532013 
	C2131.386230,484.845795 2141.312012,494.644989 2144.294189,511.112152 
	C2144.399902,511.695190 2144.832031,512.219116 2145.119629,512.785034 
	C2156.008301,511.274048 2166.660889,509.795837 2177.560303,508.283386 
	C2174.478027,488.713531 2167.346191,471.921356 2148.844482,463.264160 
	C2118.518311,449.074249 2087.310791,447.799805 2056.550781,461.520660 
	C2034.193115,471.493408 2022.746826,493.517303 2026.077271,517.471619 
	C2028.566650,535.376831 2038.964233,547.702026 2055.629639,555.901428 
M1369.005981,721.528931 
	C1369.349487,724.336670 1369.412476,727.221375 1370.152588,729.920288 
	C1370.532715,731.306152 1371.894409,733.015259 1373.197998,733.467896 
	C1398.335327,742.197449 1421.638428,734.714417 1435.747559,712.229248 
	C1442.235596,701.889404 1447.478149,690.559143 1451.833984,679.125061 
	C1474.818237,618.790222 1497.340088,558.279297 1520.021973,497.829376 
	C1525.067139,484.383484 1530.111938,470.937378 1535.293213,457.127991 
	C1523.697632,457.127991 1512.611206,457.127991 1501.094238,457.127991 
	C1482.139282,509.936157 1463.199341,562.702820 1444.532837,614.707275 
	C1444.762573,615.207520 1444.307861,614.397705 1444.006348,613.534546 
	C1426.094116,562.261475 1408.205200,510.980286 1390.225708,459.730865 
	C1389.833496,458.612762 1388.436279,457.060303 1387.486206,457.044769 
	C1376.078369,456.858276 1364.666382,456.924164 1352.921631,456.924164 
	C1353.521973,458.740112 1353.885010,459.997131 1354.348022,461.216309 
	C1378.536743,524.930603 1402.742432,588.638428 1426.885498,652.369934 
	C1427.556152,654.140564 1428.329590,656.439209 1427.756470,658.021301 
	C1424.192749,667.859558 1420.689697,677.762146 1416.321045,687.254211 
	C1412.186035,696.238831 1404.805176,702.274536 1394.755249,702.993103 
	C1385.630615,703.645508 1376.397827,702.783447 1366.836182,702.581116 
	C1367.463013,707.827271 1368.228027,714.230774 1369.005981,721.528931 
M1846.367920,621.126953 
	C1868.073853,656.593018 1909.625122,666.419983 1945.721069,657.308777 
	C1978.912476,648.930786 2000.433716,619.822021 2004.012939,587.287842 
	C1993.064575,585.867126 1982.112915,584.446045 1971.218384,583.032288 
	C1969.124146,596.399841 1965.743042,608.722961 1956.444458,618.403259 
	C1932.349365,643.487610 1887.340576,635.202820 1873.941406,602.450317 
	C1862.228638,573.819641 1862.654297,544.106628 1872.210327,514.915405 
	C1877.456665,498.889587 1889.010498,488.000092 1905.357422,482.777252 
	C1933.766602,473.700470 1958.210327,486.455078 1966.933228,514.861511 
	C1967.461304,516.581360 1967.899536,518.328918 1968.491943,520.468750 
	C1979.351929,518.820129 1990.110840,517.186890 2001.251099,515.495728 
	C1996.822998,493.570251 1987.205933,475.381226 1967.822021,464.095856 
	C1942.969727,449.626923 1916.494263,449.143524 1889.677856,457.737549 
	C1865.715698,465.416779 1849.130005,481.251343 1840.023926,504.809296 
	C1831.809570,526.060669 1829.900024,548.116699 1831.560791,570.627197 
	C1832.861938,588.260193 1836.827515,605.135193 1846.367920,621.126953 
M1756.027466,592.500000 
	C1756.027466,613.592285 1756.027466,634.684570 1756.027466,655.683899 
	C1767.696777,655.683899 1778.764404,655.683899 1789.709961,655.683899 
	C1789.709961,589.293457 1789.709961,523.219849 1789.709961,457.251068 
	C1778.354126,457.251068 1767.291382,457.251068 1756.291016,457.251068 
	C1756.167236,457.891357 1756.052979,458.206604 1756.052979,458.521881 
	C1756.039062,502.847931 1756.033447,547.173950 1756.027466,592.500000 
M2273.243896,649.318848 
	C2273.243896,638.861755 2273.243896,628.404602 2273.243896,617.777161 
	C2260.264648,617.777161 2247.720215,617.777161 2235.219727,617.777161 
	C2235.219727,630.654724 2235.219727,643.221985 2235.219727,655.854004 
	C2247.982178,655.854004 2260.434326,655.854004 2273.243896,655.854004 
	C2273.243896,653.890137 2273.243896,652.076599 2273.243896,649.318848 
M1778.482544,380.999512 
	C1771.062744,380.999512 1763.642944,380.999512 1756.333618,380.999512 
	C1756.333618,394.345947 1756.333618,407.068451 1756.333618,419.691803 
	C1767.700195,419.691803 1778.758179,419.691803 1789.701172,419.691803 
	C1789.701172,406.655334 1789.701172,393.929596 1789.701172,380.999512 
	C1786.094604,380.999512 1782.785400,380.999512 1778.482544,380.999512 
z"/>
<path fill="#26537E" opacity="1.000000" stroke="none" 
	d="
M161.253723,502.121765 
	C158.512573,497.753387 155.647278,493.457275 153.054001,489.002808 
	C145.889343,476.696045 137.873978,464.759766 132.027634,451.847229 
	C126.730377,440.147430 124.085808,427.271332 119.826996,415.069092 
	C116.126480,404.466522 116.424873,393.471436 117.293900,382.797028 
	C118.807098,364.209991 125.770187,347.668549 138.600815,333.452759 
	C144.103012,327.356567 149.620712,321.560974 156.428970,317.161835 
	C161.570007,313.839996 167.226318,311.315582 172.932281,308.964874 
	C174.354355,316.315735 174.686646,323.431641 179.789352,328.774658 
	C165.510925,334.780396 155.489655,345.149048 147.254059,357.394684 
	C145.073944,360.636353 143.466690,364.404510 142.281357,368.147797 
	C138.532669,379.986206 138.322083,392.012817 139.681793,404.386169 
	C141.392288,419.951691 146.985596,434.112640 153.694794,447.850983 
	C158.811218,458.327820 165.165390,468.214508 171.253021,478.190369 
	C172.445648,480.144745 174.941132,481.304077 176.887726,483.213684 
	C180.911911,489.044434 184.884064,494.491608 189.019547,500.244385 
	C197.090317,509.567352 204.955719,518.622070 212.928757,527.581055 
	C215.601166,530.583923 218.413849,533.492126 221.403732,536.174683 
	C225.059555,539.454651 228.956085,542.467896 232.772034,545.567505 
	C238.858017,550.510864 244.963394,555.430359 251.172455,560.598572 
	C258.585999,566.676697 265.887665,572.516235 273.469696,578.490723 
	C275.299133,579.857605 276.770813,581.205139 278.409882,582.302612 
	C288.661377,589.167114 298.739349,596.323059 309.276031,602.721680 
	C325.198761,612.391052 341.243317,621.902527 357.632507,630.746521 
	C368.952972,636.855286 380.847992,641.943542 392.676727,647.046143 
	C397.892273,649.296021 403.580719,650.449524 409.096863,652.449768 
	C410.697876,653.855774 412.125122,655.257812 413.837860,655.910156 
	C421.211639,658.718445 428.669159,661.306763 436.442719,664.128357 
	C439.045380,664.789490 441.340057,665.168274 443.551025,665.827637 
	C453.616425,668.829590 463.550781,672.347839 473.735992,674.851746 
	C486.299072,677.940247 499.057404,680.240601 511.753906,682.768250 
	C512.739624,682.964539 513.902893,682.269104 515.205383,682.284302 
	C521.969299,683.719238 528.511536,684.858093 535.498291,685.950562 
	C540.222046,686.264648 544.497253,686.873352 548.781189,686.941528 
	C564.475830,687.191284 580.205872,687.393066 595.660278,684.087402 
	C605.114868,682.065002 614.751404,680.275452 623.745911,676.891846 
	C632.909729,673.444519 641.605225,668.906921 649.538330,662.538391 
	C664.159729,650.800842 671.632874,635.472412 673.601196,617.646362 
	C674.607239,608.535645 673.339600,598.825623 671.257629,589.811951 
	C668.758972,578.994141 665.256836,568.167664 660.448914,558.182983 
	C654.104065,545.006653 646.089905,532.631958 638.690125,519.973022 
	C638.349121,519.389648 636.997009,519.397278 636.086670,518.738831 
	C633.575867,514.591431 631.265320,510.704681 628.544922,507.129700 
	C627.035706,505.146515 624.841919,503.684204 622.855347,501.654053 
	C617.695251,494.925568 613.102112,488.080444 607.464844,482.243713 
	C599.667786,474.170746 591.077148,466.864960 582.840820,459.215118 
	C577.919373,454.644135 573.112976,449.943970 568.069824,445.512421 
	C566.403992,444.048645 564.159424,443.243500 562.091553,441.784607 
	C556.735291,436.818726 551.587524,432.055573 546.136963,427.668732 
	C544.066833,426.002594 541.299927,425.202271 538.634033,423.757629 
	C537.640869,422.502655 537.056274,421.213898 536.057129,420.537018 
	C528.292114,415.276550 520.112732,410.569061 512.694153,404.867493 
	C495.413116,391.586090 475.794617,382.342621 456.834625,372.015625 
	C443.808197,364.920471 430.076263,359.110962 416.593506,352.869812 
	C413.183472,351.291351 409.520172,350.259857 405.727051,348.728088 
	C402.741821,347.371246 400.043549,346.146149 397.255920,345.178314 
	C390.179047,342.721283 383.062164,340.379486 375.736938,337.683594 
	C373.765259,336.964752 371.999603,336.618988 370.273621,336.132416 
	C358.785675,332.894043 347.338409,329.505402 335.811249,326.414154 
	C329.425598,324.701721 322.941589,323.310059 316.445557,322.068726 
	C310.429749,320.919220 304.338928,320.162415 298.091248,319.025024 
	C290.977020,317.878601 284.052673,316.939819 276.666168,315.999878 
	C263.079132,315.547089 249.954239,315.095428 236.817261,314.217865 
	C235.458633,307.334564 234.112076,300.877167 232.765503,294.419800 
	C236.321030,294.010651 239.869598,293.342987 243.433548,293.247040 
	C250.527405,293.056122 257.638092,292.966370 264.725739,293.244507 
	C269.863892,293.446106 274.976166,294.307190 280.874512,295.200684 
	C287.040894,296.048248 292.432465,296.572296 297.824738,297.089142 
	C301.026978,297.396088 304.230286,297.691742 307.864990,298.023743 
	C316.850769,299.962006 325.397064,301.904083 333.961273,303.763916 
	C339.870758,305.047241 345.908264,305.855652 351.706299,307.513641 
	C363.177429,310.793854 374.526398,314.502411 385.912537,318.076447 
	C386.981537,318.412048 387.917023,319.161255 388.979919,319.529907 
	C395.276672,321.713837 401.592743,323.842102 408.200623,326.185333 
	C417.801758,330.561218 427.104584,334.740875 436.641876,339.052673 
	C471.379669,353.305084 503.072296,372.499695 534.340454,393.148132 
	C542.484741,398.678741 550.328247,404.064880 558.385620,409.682129 
	C561.477173,412.233002 564.446228,414.449127 567.217346,416.889862 
	C581.705261,429.650757 596.333191,442.262756 610.512207,455.359894 
	C616.919373,461.278229 622.281921,468.313446 628.349243,474.619812 
	C631.259399,477.644592 634.706482,480.152832 637.926636,483.268738 
	C640.364624,487.040924 642.677429,490.524597 645.246094,493.808105 
	C646.975464,496.018707 649.066467,497.946472 650.995667,500.000793 
	C653.050720,503.237122 655.188416,506.424377 657.145874,509.718689 
	C663.901123,521.087585 671.087952,532.236694 677.180908,543.952942 
	C684.283630,557.610840 690.284119,571.837341 692.150330,587.360779 
	C693.232361,596.360962 695.055908,605.437500 694.711670,614.409363 
	C693.980835,633.458496 688.191528,650.807251 675.765442,665.974426 
	C663.243103,681.259094 647.212341,690.607422 629.065063,697.103882 
	C611.708740,703.317200 593.887634,706.890015 575.379150,706.980652 
	C567.099609,707.021179 558.818542,707.993835 550.546204,707.890930 
	C543.812439,707.807190 537.094604,706.703369 530.359863,706.176758 
	C529.308472,706.094482 528.205078,706.677246 526.563416,706.713745 
	C521.917542,705.677551 517.859558,704.680237 513.741455,704.151917 
	C510.943451,703.792908 508.061066,704.091309 504.916290,703.833862 
	C501.077362,702.898376 497.498657,702.386230 494.007019,701.522034 
	C481.799011,698.500549 469.530914,695.669495 457.454559,692.181519 
	C442.368835,687.824402 427.456421,682.868835 412.454071,678.220398 
	C409.672119,677.358459 406.818848,676.726746 403.838989,675.676270 
	C402.164185,674.442505 400.726532,673.346680 399.119568,672.631104 
	C393.245300,670.015503 387.167114,667.811340 381.472412,664.860352 
	C378.931641,663.543701 377.040100,663.369141 374.819519,664.446594 
	C373.940186,663.256287 373.168488,662.115479 372.096100,661.598816 
	C366.153656,658.735291 359.978241,656.320557 354.179688,653.200073 
	C340.586761,645.884949 327.074402,638.409119 313.702606,630.698120 
	C305.667633,626.064575 298.046082,620.718201 290.061737,615.991150 
	C286.596832,613.939819 282.686340,612.641052 278.696777,610.804016 
	C275.800629,608.084045 273.425018,605.233276 270.517944,603.110046 
	C265.573822,599.499023 260.295258,596.346008 254.892303,592.789307 
	C253.768860,591.571594 253.035614,590.413940 252.032196,589.582214 
	C243.173386,582.238525 234.217499,575.011414 225.394669,567.625183 
	C220.953247,563.906921 216.594208,560.068787 212.432739,556.042114 
	C204.207672,548.083679 196.089371,540.012451 188.038895,531.876953 
	C183.578903,527.369873 179.345276,522.638916 174.973801,517.662476 
	C172.589127,514.345825 170.365005,511.264465 167.852005,508.440155 
	C165.834198,506.172424 163.466263,504.216248 161.253723,502.121765 
z"/>
<path fill="#FEFEFE" opacity="1.000000" stroke="none" 
	d="
M906.606750,473.999542 
	C906.606750,442.854340 906.606750,412.209198 906.606750,381.240417 
	C907.990845,381.146942 909.091919,381.006470 910.192932,381.007782 
	C946.857300,381.051147 983.526306,380.792694 1020.183411,381.336426 
	C1032.768677,381.523102 1045.487427,382.850830 1057.859863,385.175690 
	C1085.474487,390.364594 1104.033691,406.912415 1112.126343,433.738525 
	C1121.208374,463.844025 1116.734131,492.045074 1096.661987,516.980835 
	C1085.023438,531.439270 1068.860596,537.947693 1051.281616,540.790955 
	C1038.843628,542.802734 1026.142944,543.722351 1013.533142,544.022461 
	C991.879700,544.537659 970.205688,544.188416 948.540283,544.201782 
	C946.898987,544.202820 945.257690,544.201965 943.273926,544.201965 
	C943.273926,581.440125 943.273926,618.364563 943.273926,655.645081 
	C931.024109,655.645081 919.119934,655.645081 906.606750,655.645081 
	C906.606750,595.357544 906.606750,534.928589 906.606750,473.999542 
M1076.884155,478.097351 
	C1077.091553,477.121399 1077.295532,476.144653 1077.507080,475.169586 
	C1083.649536,446.844360 1070.779419,413.809143 1030.575928,413.947235 
	C1001.929321,414.045624 973.281555,413.794006 944.634216,413.716370 
	C944.192078,413.715179 943.749207,413.942169 943.411255,414.034180 
	C943.411255,446.740875 943.411255,479.262146 943.411255,511.907623 
	C966.125916,511.907623 988.443542,512.079346 1010.756287,511.822205 
	C1019.553955,511.720795 1028.422607,511.216309 1037.115479,509.927185 
	C1056.031372,507.122009 1070.578003,498.272278 1076.884155,478.097351 
z"/>
<path fill="#FDFDFD" opacity="1.000000" stroke="none" 
	d="
M1158.254883,611.999817 
	C1158.254883,534.878906 1158.254883,458.258087 1158.254883,381.316528 
	C1169.608032,381.316528 1180.657349,381.316528 1192.048462,381.316528 
	C1192.048462,413.622681 1192.048462,445.868530 1192.048462,479.515961 
	C1194.345337,477.293213 1195.853271,475.930206 1197.253662,474.464600 
	C1225.680054,444.714325 1276.353516,447.568451 1300.240356,467.761505 
	C1311.776611,477.513763 1317.018921,490.294373 1318.873291,504.705750 
	C1319.933350,512.943848 1320.542358,521.295288 1320.584961,529.599670 
	C1320.794189,570.422302 1320.745483,611.246338 1320.787598,652.069824 
	C1320.788818,653.200256 1320.787720,654.330627 1320.787720,655.730896 
	C1309.356079,655.730896 1298.301758,655.730896 1286.884766,655.730896 
	C1286.884766,653.764832 1286.884644,651.972961 1286.884888,650.181091 
	C1286.888794,610.857178 1286.991211,571.532837 1286.806030,532.209839 
	C1286.772583,525.093018 1286.220703,517.842102 1284.755493,510.896240 
	C1281.440063,495.177673 1271.650146,485.157898 1255.680908,482.513916 
	C1234.163086,478.951202 1215.711426,484.820190 1202.192383,502.685272 
	C1195.978638,510.896637 1193.499634,520.751038 1193.131226,530.808777 
	C1192.430420,549.944092 1192.318970,569.104492 1192.186890,588.256104 
	C1192.043213,609.083374 1192.154297,629.912537 1192.154297,650.740845 
	C1192.154297,652.359253 1192.154297,653.977661 1192.154297,655.796997 
	C1180.799072,655.796997 1169.853882,655.796997 1158.254883,655.796997 
	C1158.254883,641.362671 1158.254883,626.931274 1158.254883,611.999817 
z"/>
<path fill="#FEFEFE" opacity="1.000000" stroke="none" 
	d="
M2331.997559,613.000000 
	C2331.997559,535.531433 2331.997559,458.562836 2331.997559,381.295837 
	C2343.268311,381.295837 2354.331787,381.295837 2365.959473,381.295837 
	C2365.959473,413.643433 2365.959473,445.990295 2365.959473,479.429749 
	C2375.400879,469.205383 2385.279053,461.447662 2397.458984,457.274475 
	C2418.628418,450.021423 2439.740967,450.423096 2460.297119,459.401367 
	C2481.213379,468.536987 2490.701416,485.813324 2492.900635,507.720856 
	C2493.565186,514.339905 2494.010742,521.011230 2494.028809,527.660034 
	C2494.141357,569.153809 2494.104004,610.647949 2494.116455,652.141968 
	C2494.116699,653.270935 2494.116699,654.399841 2494.116699,655.764221 
	C2482.840820,655.764221 2471.898682,655.764221 2460.215576,655.764221 
	C2460.215576,654.091492 2460.214111,652.346252 2460.215820,650.601074 
	C2460.253418,611.440063 2460.334229,572.278992 2460.283936,533.118103 
	C2460.276611,527.307861 2460.197998,521.404358 2459.216553,515.705139 
	C2455.089600,491.736572 2439.933105,479.980896 2415.709473,481.512329 
	C2388.211426,483.250702 2369.644287,501.016785 2366.962891,528.438477 
	C2366.250977,535.717224 2365.921143,543.059998 2365.898682,550.374817 
	C2365.791748,585.355103 2365.850586,620.335876 2365.850586,655.659485 
	C2354.710938,655.659485 2343.648193,655.659485 2331.997559,655.659485 
	C2331.997559,641.690796 2331.997559,627.595398 2331.997559,613.000000 
z"/>
<path fill="#FDFDFD" opacity="1.000000" stroke="none" 
	d="
M1707.596191,568.431091 
	C1723.641724,593.820679 1715.526245,628.370911 1689.742920,645.634644 
	C1672.918335,656.899963 1654.022339,660.949951 1634.195801,660.303223 
	C1623.286621,659.947449 1612.182251,658.837891 1601.608032,656.257019 
	C1574.039062,649.528259 1558.806396,630.428955 1552.010010,603.726868 
	C1551.440308,601.488770 1551.068237,599.200256 1550.509155,596.469360 
	C1561.684570,594.727417 1572.577515,593.029541 1583.606567,591.310486 
	C1584.428589,594.585144 1585.068604,597.659180 1585.973755,600.653015 
	C1590.618164,616.014282 1600.429443,626.240356 1616.131714,630.293701 
	C1630.650635,634.041504 1645.155151,633.876831 1659.427368,629.050842 
	C1668.172974,626.093689 1674.800293,620.394531 1678.770020,612.036255 
	C1684.896362,599.136780 1680.130859,585.934631 1666.581665,580.991821 
	C1653.504150,576.221191 1639.819458,573.143311 1626.529419,568.919434 
	C1612.144775,564.347656 1597.286987,560.625122 1583.727051,554.221191 
	C1548.033203,537.364075 1546.685791,487.324188 1580.511475,465.214783 
	C1595.503296,455.415771 1612.520752,452.392731 1630.082397,452.410675 
	C1643.608276,452.424500 1656.906616,454.272705 1669.799316,458.831055 
	C1692.326416,466.795837 1706.385132,484.602142 1707.939209,508.304535 
	C1697.230347,509.804596 1686.466797,511.312317 1675.785767,512.808472 
	C1674.518433,508.884247 1673.619629,504.999329 1672.040527,501.413940 
	C1666.905029,489.753601 1657.354370,483.571136 1645.232788,481.351440 
	C1633.139526,479.136932 1620.924316,479.281586 1609.152832,483.023468 
	C1604.399658,484.534424 1599.564819,487.143219 1595.909058,490.497192 
	C1584.898438,500.598633 1586.390869,516.147766 1599.595825,523.103271 
	C1608.142212,527.604919 1617.848633,530.007996 1627.174072,532.904175 
	C1644.943237,538.422607 1662.884766,543.391724 1680.611938,549.037170 
	C1691.453979,552.490051 1700.662231,558.681335 1707.596191,568.431091 
z"/>
<path fill="#FDFDFD" opacity="1.000000" stroke="none" 
	d="
M2055.289307,555.747559 
	C2038.964233,547.702026 2028.566650,535.376831 2026.077271,517.471619 
	C2022.746826,493.517303 2034.193115,471.493408 2056.550781,461.520660 
	C2087.310791,447.799805 2118.518311,449.074249 2148.844482,463.264160 
	C2167.346191,471.921356 2174.478027,488.713531 2177.560303,508.283386 
	C2166.660889,509.795837 2156.008301,511.274048 2145.119629,512.785034 
	C2144.832031,512.219116 2144.399902,511.695190 2144.294189,511.112152 
	C2141.312012,494.644989 2131.386230,484.845795 2115.214844,481.532013 
	C2102.455811,478.917511 2089.620850,479.432495 2077.181885,483.303680 
	C2073.034668,484.594330 2068.944336,487.094574 2065.676270,489.996857 
	C2054.170654,500.214478 2055.572998,516.064941 2069.132812,523.320435 
	C2076.638428,527.336487 2085.202393,529.489441 2093.434082,532.008911 
	C2111.551758,537.553955 2129.904053,542.372009 2147.864014,548.374084 
	C2155.129150,550.802063 2162.312012,554.665833 2168.336426,559.398682 
	C2188.817139,575.488464 2188.414062,604.450745 2179.142578,622.723694 
	C2170.892822,638.983154 2157.511719,649.180237 2140.642334,654.751831 
	C2115.326904,663.112976 2089.698242,662.704102 2064.543457,654.345032 
	C2039.742432,646.103760 2027.016113,626.968750 2021.032471,602.544495 
	C2020.567505,600.645996 2020.259033,598.709167 2019.811890,596.457642 
	C2030.990723,594.723572 2041.773315,593.050964 2052.991455,591.310730 
	C2053.434814,593.380005 2053.786621,595.288452 2054.255127,597.167786 
	C2058.936279,615.941162 2070.415771,627.711853 2089.687012,631.311340 
	C2103.009033,633.799622 2116.301758,633.687012 2129.091797,628.890137 
	C2140.354492,624.666016 2148.401123,617.050110 2150.103027,604.496948 
	C2151.598877,593.461853 2147.054932,584.851501 2136.457764,581.181824 
	C2122.033691,576.187012 2107.152344,572.529419 2092.555176,568.013855 
	C2080.181641,564.186157 2067.933350,559.954346 2055.289307,555.747559 
z"/>
<path fill="#FDFDFD" opacity="1.000000" stroke="none" 
	d="
M1368.999512,721.081604 
	C1368.228027,714.230774 1367.463013,707.827271 1366.836182,702.581116 
	C1376.397827,702.783447 1385.630615,703.645508 1394.755249,702.993103 
	C1404.805176,702.274536 1412.186035,696.238831 1416.321045,687.254211 
	C1420.689697,677.762146 1424.192749,667.859558 1427.756470,658.021301 
	C1428.329590,656.439209 1427.556152,654.140564 1426.885498,652.369934 
	C1402.742432,588.638428 1378.536743,524.930603 1354.348022,461.216309 
	C1353.885010,459.997131 1353.521973,458.740112 1352.921631,456.924164 
	C1364.666382,456.924164 1376.078369,456.858276 1387.486206,457.044769 
	C1388.436279,457.060303 1389.833496,458.612762 1390.225708,459.730865 
	C1408.205200,510.980286 1426.094116,562.261475 1444.006348,613.534546 
	C1444.307861,614.397705 1444.762573,615.207520 1444.532837,614.707275 
	C1463.199341,562.702820 1482.139282,509.936157 1501.094238,457.127991 
	C1512.611206,457.127991 1523.697632,457.127991 1535.293213,457.127991 
	C1530.111938,470.937378 1525.067139,484.383484 1520.021973,497.829376 
	C1497.340088,558.279297 1474.818237,618.790222 1451.833984,679.125061 
	C1447.478149,690.559143 1442.235596,701.889404 1435.747559,712.229248 
	C1421.638428,734.714417 1398.335327,742.197449 1373.197998,733.467896 
	C1371.894409,733.015259 1370.532715,731.306152 1370.152588,729.920288 
	C1369.412476,727.221375 1369.349487,724.336670 1368.999512,721.081604 
z"/>
<path fill="#FDFDFD" opacity="1.000000" stroke="none" 
	d="
M1846.183838,620.811279 
	C1836.827515,605.135193 1832.861938,588.260193 1831.560791,570.627197 
	C1829.900024,548.116699 1831.809570,526.060669 1840.023926,504.809296 
	C1849.130005,481.251343 1865.715698,465.416779 1889.677856,457.737549 
	C1916.494263,449.143524 1942.969727,449.626923 1967.822021,464.095856 
	C1987.205933,475.381226 1996.822998,493.570251 2001.251099,515.495728 
	C1990.110840,517.186890 1979.351929,518.820129 1968.491943,520.468750 
	C1967.899536,518.328918 1967.461304,516.581360 1966.933228,514.861511 
	C1958.210327,486.455078 1933.766602,473.700470 1905.357422,482.777252 
	C1889.010498,488.000092 1877.456665,498.889587 1872.210327,514.915405 
	C1862.654297,544.106628 1862.228638,573.819641 1873.941406,602.450317 
	C1887.340576,635.202820 1932.349365,643.487610 1956.444458,618.403259 
	C1965.743042,608.722961 1969.124146,596.399841 1971.218384,583.032288 
	C1982.112915,584.446045 1993.064575,585.867126 2004.012939,587.287842 
	C2000.433716,619.822021 1978.912476,648.930786 1945.721069,657.308777 
	C1909.625122,666.419983 1868.073853,656.593018 1846.183838,620.811279 
z"/>
<path fill="#267DB6" opacity="1.000000" stroke="none" 
	d="
M374.788330,664.784302 
	C377.040100,663.369141 378.931641,663.543701 381.472412,664.860352 
	C387.167114,667.811340 393.245300,670.015503 399.119568,672.631104 
	C400.726532,673.346680 402.164185,674.442505 403.589600,675.933105 
	C393.954498,679.995667 384.488800,683.730713 374.838409,686.904358 
	C367.388367,689.354370 359.760376,691.330750 352.116516,693.109619 
	C337.194000,696.582458 322.205017,699.769775 306.796082,703.065308 
	C297.930176,703.916687 289.511749,704.778076 281.336761,705.614502 
	C281.921417,705.873291 282.898895,706.306030 283.876404,706.738770 
	C268.797821,707.198547 253.643524,708.835022 238.656601,707.870544 
	C208.522247,705.931335 179.045990,700.608765 153.758499,682.236877 
	C136.036865,669.361755 123.840492,652.683594 119.854881,630.749939 
	C118.684135,624.307007 117.590385,617.777283 117.341751,611.253784 
	C116.684395,594.006409 121.072304,577.606628 127.162010,561.683594 
	C133.127914,546.084229 140.621887,531.229797 150.494476,517.653381 
	C154.063843,512.744934 157.358032,507.636444 161.015762,502.370514 
	C163.466263,504.216248 165.834198,506.172424 167.852005,508.440155 
	C170.365005,511.264465 172.589127,514.345825 174.672226,517.828125 
	C165.944168,533.622803 156.795685,548.573547 149.199249,564.275208 
	C140.382736,582.498718 136.719162,601.870483 139.670578,622.361572 
	C141.586670,635.664612 147.117065,646.964417 156.064377,656.565002 
	C165.339676,666.517517 177.297989,672.754089 189.752319,677.614014 
	C196.865067,680.389465 204.629852,681.652771 212.202423,683.045959 
	C219.603195,684.407410 227.120834,685.175842 234.608490,686.014099 
	C248.795395,687.602417 262.969818,687.899231 277.414429,685.165649 
	C279.189606,685.374329 280.641266,685.653748 282.026428,685.459351 
	C287.458771,684.697021 292.870178,683.785217 298.688049,682.939331 
	C307.085876,681.348755 315.174774,680.097717 323.065399,678.073853 
	C339.384796,673.887939 355.598633,669.290710 372.195007,664.885010 
	C372.756165,664.862427 372.978210,664.817505 373.465332,664.765442 
	C374.083038,664.766968 374.435699,664.775635 374.788330,664.784302 
z"/>
<path fill="#3993CE" opacity="1.000000" stroke="none" 
	d="
M307.433105,297.992462 
	C304.230286,297.691742 301.026978,297.396088 297.824738,297.089142 
	C292.432465,296.572296 287.040894,296.048248 281.331635,295.270905 
	C282.735413,293.796082 285.155579,292.961212 286.068024,291.298828 
	C293.976685,276.889832 301.144318,262.056061 309.461029,247.894028 
	C318.314575,232.817780 330.359680,220.145065 343.208618,208.410065 
	C356.499115,196.271759 372.297424,188.096893 389.855865,184.641693 
	C408.410217,180.990479 426.473541,184.238022 443.854767,191.958160 
	C461.016968,199.581039 474.422638,212.006393 486.256531,225.828568 
	C495.497498,236.622177 503.087280,248.962341 510.438812,261.199188 
	C516.469360,271.237183 521.068726,282.134979 526.195312,293.435272 
	C524.862915,294.813965 523.687927,295.759674 522.403870,295.943726 
	C516.707947,296.760223 510.980682,297.358185 505.190430,297.681854 
	C504.742249,296.197144 504.368408,295.065796 503.938721,293.745789 
	C503.749847,293.314697 503.550690,293.154572 503.092224,292.768219 
	C502.003174,290.680603 501.087280,288.911316 500.214264,287.121124 
	C489.663422,265.485687 477.333740,245.073059 459.412811,228.598923 
	C455.298401,224.816666 450.976105,221.192734 446.404938,217.987305 
	C429.944275,206.444717 411.948761,201.218109 391.882660,205.869751 
	C376.798767,209.366425 364.434418,217.904739 353.309845,228.139633 
	C340.599823,239.833191 330.516907,253.784195 322.003479,268.733734 
	C316.620148,278.186768 312.254944,288.219635 307.433105,297.992462 
z"/>
<path fill="#FFFFFF" opacity="1.000000" stroke="none" 
	d="
M1756.027466,592.000000 
	C1756.033447,547.173950 1756.039062,502.847931 1756.052979,458.521881 
	C1756.052979,458.206604 1756.167236,457.891357 1756.291016,457.251068 
	C1767.291382,457.251068 1778.354126,457.251068 1789.709961,457.251068 
	C1789.709961,523.219849 1789.709961,589.293457 1789.709961,655.683899 
	C1778.764404,655.683899 1767.696777,655.683899 1756.027466,655.683899 
	C1756.027466,634.684570 1756.027466,613.592285 1756.027466,592.000000 
z"/>
<path fill="#267DB7" opacity="1.000000" stroke="none" 
	d="
M505.264740,298.035217 
	C510.980682,297.358185 516.707947,296.760223 522.403870,295.943726 
	C523.687927,295.759674 524.862915,294.813965 526.254822,293.792877 
	C532.123962,293.786316 537.821716,294.471222 543.529663,294.569000 
	C554.815369,294.762390 566.109436,294.482361 577.394470,294.695953 
	C583.152527,294.804932 588.912964,295.424469 594.647156,296.045685 
	C614.343079,298.179535 632.718994,304.473511 650.061340,313.927185 
	C650.472839,314.151489 650.737183,314.645874 651.096497,315.672089 
	C647.412842,321.578217 643.702759,326.826508 639.626831,332.064148 
	C637.284668,330.894135 635.379456,329.586609 633.320862,328.598663 
	C615.054749,319.832672 595.529785,315.846405 575.512939,314.961151 
	C562.464050,314.384003 549.334351,315.633026 535.766602,316.041534 
	C528.135559,316.696503 520.978638,317.373932 513.414978,318.102020 
	C505.840973,319.676331 498.629608,321.019623 491.515686,322.761078 
	C476.595032,326.413483 461.689575,330.141815 446.860901,334.146271 
	C443.212677,335.131439 439.883331,337.297394 436.407410,338.920532 
	C427.104584,334.740875 417.801758,330.561218 408.438232,325.921844 
	C413.404907,323.407257 418.301453,320.909607 423.483582,319.378387 
	C440.778809,314.268005 458.125671,309.313110 475.554504,304.681488 
	C485.354553,302.077240 495.354736,300.225800 505.264740,298.035217 
z"/>
<path fill="#3993CE" opacity="1.000000" stroke="none" 
	d="
M284.177155,706.949341 
	C282.898895,706.306030 281.921417,705.873291 281.336761,705.614502 
	C289.511749,704.778076 297.930176,703.916687 306.871735,703.404663 
	C308.842743,707.085510 310.205353,710.457336 311.752502,713.742249 
	C321.516449,734.472717 333.922974,753.477722 349.726776,770.090820 
	C354.452576,775.058533 359.996582,779.365540 365.610291,783.348694 
	C381.913330,794.916382 399.694611,800.298218 419.809143,795.578979 
	C431.750031,792.777405 442.291046,787.313293 452.127258,780.326050 
	C456.813782,785.397522 461.374481,790.158813 465.935181,794.920105 
	C459.769348,799.196045 453.835052,803.864624 447.389038,807.665344 
	C434.427704,815.307434 419.850250,818.064453 405.171082,818.381042 
	C386.349091,818.786865 369.178253,812.026489 353.924622,801.406372 
	C338.674927,790.789001 326.389832,777.061646 315.195129,762.138489 
	C304.497559,747.877991 296.906403,732.013245 288.663055,716.439880 
	C287.078735,713.446716 285.863434,710.258240 284.177155,706.949341 
z"/>
<path fill="#3995D1" opacity="1.000000" stroke="none" 
	d="
M232.544113,294.156036 
	C234.112076,300.877167 235.458633,307.334564 236.678680,314.584076 
	C233.200424,329.721924 224.338364,337.816437 209.879318,341.291412 
	C201.120758,343.396393 183.475006,336.064148 180.161743,328.685028 
	C174.686646,323.431641 174.354355,316.315735 173.279785,309.151245 
	C173.691650,306.872650 174.034988,304.936279 174.580841,302.445618 
	C174.977264,301.648132 175.060455,301.371643 175.032928,301.061798 
	C182.001312,278.124176 211.320679,270.954376 227.536896,287.938293 
	C228.454254,288.899078 229.444199,289.790558 230.652512,291.120514 
	C230.944046,291.774445 231.059845,291.978882 231.252014,292.140045 
	C231.608917,292.724121 231.965820,293.308197 232.544113,294.156036 
z"/>
<path fill="#26547E" opacity="1.000000" stroke="none" 
	d="
M466.354370,794.984680 
	C461.374481,790.158813 456.813782,785.397522 451.954834,779.987427 
	C446.493530,769.280151 447.529663,759.452759 452.756775,749.780640 
	C456.563812,742.736267 462.102875,737.288330 469.952423,735.779785 
	C476.597809,734.502747 483.575775,734.956299 490.675842,734.913208 
	C495.324249,738.329834 499.666565,741.530945 504.111298,744.582825 
	C505.093079,745.256897 506.437500,745.402893 507.614990,745.792053 
	C507.779724,747.526611 507.452240,749.514099 508.191742,750.953369 
	C512.051208,758.465271 511.889313,766.230042 510.189697,774.160034 
	C507.902771,784.830078 500.610901,790.658997 491.154388,795.106445 
	C482.749176,799.059570 474.882660,796.266846 466.354370,794.984680 
z"/>
<path fill="#26537E" opacity="1.000000" stroke="none" 
	d="
M639.992676,332.074799 
	C643.702759,326.826508 647.412842,321.578217 651.268311,315.968140 
	C652.358215,315.457550 653.471558,315.582489 654.221985,315.119354 
	C668.353333,306.397583 688.846924,310.962860 697.281860,324.836273 
	C703.838989,335.621124 704.008362,352.466034 694.233154,363.183472 
	C693.143799,364.377777 692.271973,365.770508 690.863647,367.451843 
	C684.324768,369.888947 678.221619,371.945435 671.724487,373.871399 
	C670.550903,373.496368 669.782654,373.086761 668.989929,373.031799 
	C655.320984,372.084381 646.151978,365.439636 641.054016,352.476257 
	C638.335083,345.562439 639.229248,338.925507 639.992676,332.074799 
z"/>
<path fill="#257CB6" opacity="1.000000" stroke="none" 
	d="
M672.118530,374.001923 
	C678.221619,371.945435 684.324768,369.888947 690.841858,367.777893 
	C692.468140,372.948792 694.460144,378.130463 694.756042,383.407288 
	C695.947510,404.651703 692.309387,425.280792 683.285156,444.486542 
	C676.064331,459.854370 667.383850,474.548157 659.058411,489.376740 
	C657.009705,493.025604 653.819885,496.033752 651.075195,499.668640 
	C649.066467,497.946472 646.975464,496.018707 645.246094,493.808105 
	C642.677429,490.524597 640.364624,487.040924 638.127563,482.996216 
	C648.403564,468.016724 657.637939,453.224152 664.186707,436.845856 
	C669.550903,423.430298 673.734375,409.758728 673.745911,395.213013 
	C673.751465,388.143066 672.694458,381.072327 672.118530,374.001923 
z"/>
<path fill="#FCFCFC" opacity="1.000000" stroke="none" 
	d="
M2273.243896,649.790955 
	C2273.243896,652.076599 2273.243896,653.890137 2273.243896,655.854004 
	C2260.434326,655.854004 2247.982178,655.854004 2235.219727,655.854004 
	C2235.219727,643.221985 2235.219727,630.654724 2235.219727,617.777161 
	C2247.720215,617.777161 2260.264648,617.777161 2273.243896,617.777161 
	C2273.243896,628.404602 2273.243896,638.861755 2273.243896,649.790955 
z"/>
<path fill="#FFFFFF" opacity="1.000000" stroke="none" 
	d="
M1778.979492,380.999512 
	C1782.785400,380.999512 1786.094604,380.999512 1789.701172,380.999512 
	C1789.701172,393.929596 1789.701172,406.655334 1789.701172,419.691803 
	C1778.758179,419.691803 1767.700195,419.691803 1756.333618,419.691803 
	C1756.333618,407.068451 1756.333618,394.345947 1756.333618,380.999512 
	C1763.642944,380.999512 1771.062744,380.999512 1778.979492,380.999512 
z"/>
<path fill="#3993CE" opacity="1.000000" stroke="none" 
	d="
M507.731140,745.457153 
	C506.437500,745.402893 505.093079,745.256897 504.111298,744.582825 
	C499.666565,741.530945 495.324249,738.329834 490.765808,734.554749 
	C495.463165,723.983215 500.339783,714.039429 505.216431,704.095703 
	C508.061066,704.091309 510.943451,703.792908 513.741455,704.151917 
	C517.859558,704.680237 521.917542,705.677551 526.210571,706.840332 
	C520.229187,719.844421 514.038208,732.483337 507.731140,745.457153 
z"/>
<path fill="#26537E" opacity="1.000000" stroke="none" 
	d="
M174.801178,301.151672 
	C175.060455,301.371643 174.977264,301.648132 174.608673,302.025116 
	C174.244843,301.818451 174.289993,301.512665 174.801178,301.151672 
z"/>
<path fill="#26537E" opacity="1.000000" stroke="none" 
	d="
M231.374725,291.945282 
	C231.059845,291.978882 230.944046,291.774445 230.898224,291.347473 
	C231.267120,291.182281 231.468994,291.376373 231.374725,291.945282 
z"/>
<path fill="#0E1218" opacity="1.000000" stroke="none" 
	d="
M405.973267,348.977020 
	C409.520172,350.259857 413.183472,351.291351 416.593506,352.869812 
	C430.076263,359.110962 443.808197,364.920471 456.834625,372.015625 
	C475.794617,382.342621 495.413116,391.586090 512.694153,404.867493 
	C520.112732,410.569061 528.292114,415.276550 536.057129,420.537018 
	C537.056274,421.213898 537.640869,422.502655 538.606750,424.187531 
	C539.214600,428.621918 539.691101,432.371368 540.041199,436.132568 
	C541.215088,448.744141 543.145020,461.349426 543.310120,473.976410 
	C543.587463,495.195892 542.807007,516.431946 542.314758,537.657349 
	C542.123352,545.910095 541.661316,554.164917 541.024658,562.395813 
	C540.646362,567.286621 539.687988,572.132507 538.804077,577.295776 
	C537.748169,578.865784 537.150757,580.535095 535.965881,581.348450 
	C526.992859,587.508057 517.894958,593.485535 508.854248,599.547058 
	C488.086243,613.471313 466.214630,625.456482 443.720123,636.301758 
	C432.284119,641.815430 420.617065,646.849792 409.054474,652.100830 
	C403.580719,650.449524 397.892273,649.296021 392.676727,647.046143 
	C380.847992,641.943542 368.952972,636.855286 357.632507,630.746521 
	C341.243317,621.902527 325.198761,612.391052 309.276031,602.721680 
	C298.739349,596.323059 288.661377,589.167114 278.409882,582.302612 
	C276.770813,581.205139 275.299133,579.857605 273.522522,578.016724 
	C273.281952,576.408447 273.330231,575.403992 273.246826,574.410583 
	C271.742828,556.501221 269.433929,538.616028 268.918152,520.678955 
	C268.350647,500.944031 269.106628,481.148621 269.907654,461.404816 
	C270.413849,448.929016 272.057953,436.499420 273.431549,423.822876 
	C274.879913,422.226776 275.862640,420.518066 277.331726,419.539551 
	C291.998779,409.770233 306.275574,399.288605 321.584320,390.639557 
	C342.888489,378.603271 364.919830,367.840912 386.778412,356.807587 
	C392.927551,353.703766 399.561615,351.560730 405.973267,348.977020 
M424.524475,439.939362 
	C414.316406,437.270691 404.097595,437.010376 393.637756,438.741119 
	C379.329315,441.108704 367.048279,447.241852 356.440765,456.947296 
	C344.367126,467.994141 336.641754,481.449127 333.901428,497.691559 
	C331.985809,509.045776 332.277710,520.249695 335.216827,531.432373 
	C338.915131,545.503723 346.580200,557.074158 357.303772,566.616516 
	C369.766327,577.706421 384.401276,584.071045 401.136353,585.072021 
	C419.295471,586.158203 435.835693,581.476074 450.369904,570.365540 
	C461.784851,561.639404 471.001038,550.952881 475.428253,537.189331 
	C479.074158,525.854858 481.530701,514.325073 479.392700,501.912079 
	C477.036011,488.229401 472.615143,475.735657 463.827179,465.121552 
	C453.677673,452.862946 440.944519,444.167755 424.524475,439.939362 
z"/>
<path fill="#0D1218" opacity="1.000000" stroke="none" 
	d="
M505.190430,297.681854 
	C495.354736,300.225800 485.354553,302.077240 475.554504,304.681488 
	C458.125671,309.313110 440.778809,314.268005 423.483582,319.378387 
	C418.301453,320.909607 413.404907,323.407257 408.139923,325.725616 
	C401.592743,323.842102 395.276672,321.713837 388.979919,319.529907 
	C387.917023,319.161255 386.981537,318.412048 385.912537,318.076447 
	C374.526398,314.502411 363.177429,310.793854 351.706299,307.513641 
	C345.908264,305.855652 339.870758,305.047241 333.961273,303.763916 
	C325.397064,301.904083 316.850769,299.962006 307.864960,298.023743 
	C312.254944,288.219635 316.620148,278.186768 322.003479,268.733734 
	C330.516907,253.784195 340.599823,239.833191 353.309845,228.139633 
	C364.434418,217.904739 376.798767,209.366425 391.882660,205.869751 
	C411.948761,201.218109 429.944275,206.444717 446.404938,217.987305 
	C450.976105,221.192734 455.298401,224.816666 459.412811,228.598923 
	C477.333740,245.073059 489.663422,265.485687 500.214264,287.121124 
	C501.087280,288.911316 502.003174,290.680603 503.109497,292.974854 
	C503.463470,293.761505 503.688385,293.909637 503.994568,293.934448 
	C504.368408,295.065796 504.742249,296.197144 505.190430,297.681854 
z"/>
<path fill="#0D1218" opacity="1.000000" stroke="none" 
	d="
M636.115784,519.129639 
	C636.997009,519.397278 638.349121,519.389648 638.690125,519.973022 
	C646.089905,532.631958 654.104065,545.006653 660.448914,558.182983 
	C665.256836,568.167664 668.758972,578.994141 671.257629,589.811951 
	C673.339600,598.825623 674.607239,608.535645 673.601196,617.646362 
	C671.632874,635.472412 664.159729,650.800842 649.538330,662.538391 
	C641.605225,668.906921 632.909729,673.444519 623.745911,676.891846 
	C614.751404,680.275452 605.114868,682.065002 595.660278,684.087402 
	C580.205872,687.393066 564.475830,687.191284 548.781189,686.941528 
	C544.497253,686.873352 540.222046,686.264648 535.581055,685.578491 
	C536.751892,680.800842 538.562561,676.422607 539.767883,671.883606 
	C544.452881,654.240234 549.229065,636.612061 553.382568,618.840637 
	C555.277649,610.731995 555.802856,602.303223 557.111389,593.712280 
	C560.401611,590.328186 563.339905,587.024719 566.693176,584.216736 
	C577.302795,575.332214 588.615417,567.211121 598.636108,557.718018 
	C611.642273,545.396667 623.667969,532.040405 636.115784,519.129639 
z"/>
<path fill="#0D1218" opacity="1.000000" stroke="none" 
	d="
M277.060333,685.018677 
	C262.969818,687.899231 248.795395,687.602417 234.608490,686.014099 
	C227.120834,685.175842 219.603195,684.407410 212.202423,683.045959 
	C204.629852,681.652771 196.865067,680.389465 189.752319,677.614014 
	C177.297989,672.754089 165.339676,666.517517 156.064377,656.565002 
	C147.117065,646.964417 141.586670,635.664612 139.670578,622.361572 
	C136.719162,601.870483 140.382736,582.498718 149.199249,564.275208 
	C156.795685,548.573547 165.944168,533.622803 174.708023,518.174438 
	C179.345276,522.638916 183.578903,527.369873 188.038895,531.876953 
	C196.089371,540.012451 204.207672,548.083679 212.432739,556.042114 
	C216.594208,560.068787 220.953247,563.906921 225.394669,567.625183 
	C234.217499,575.011414 243.173386,582.238525 252.032196,589.582214 
	C253.035614,590.413940 253.768860,591.571594 254.825806,593.229004 
	C256.842529,605.039917 258.226166,616.293274 260.593506,627.335632 
	C263.309296,640.003479 266.705292,652.537842 270.183105,665.025085 
	C272.070648,671.802368 274.742340,678.361267 277.060333,685.018677 
z"/>
<path fill="#0D1218" opacity="1.000000" stroke="none" 
	d="
M504.916260,703.833801 
	C500.339783,714.039429 495.463165,723.983215 490.496552,734.285522 
	C483.575775,734.956299 476.597809,734.502747 469.952423,735.779785 
	C462.102875,737.288330 456.563812,742.736267 452.756775,749.780640 
	C447.529663,759.452759 446.493530,769.280151 451.828979,779.677246 
	C442.291046,787.313293 431.750031,792.777405 419.809143,795.578979 
	C399.694611,800.298218 381.913330,794.916382 365.610291,783.348694 
	C359.996582,779.365540 354.452576,775.058533 349.726776,770.090820 
	C333.922974,753.477722 321.516449,734.472717 311.752502,713.742249 
	C310.205353,710.457336 308.842743,707.085510 307.319214,703.414612 
	C322.205017,699.769775 337.194000,696.582458 352.116516,693.109619 
	C359.760376,691.330750 367.388367,689.354370 374.838409,686.904358 
	C384.488800,683.730713 393.954498,679.995667 403.749115,676.245544 
	C406.818848,676.726746 409.672119,677.358459 412.454071,678.220398 
	C427.456421,682.868835 442.368835,687.824402 457.454559,692.181519 
	C469.530914,695.669495 481.799011,698.500549 494.007019,701.522034 
	C497.498657,702.386230 501.077362,702.898376 504.916260,703.833801 
z"/>
<path fill="#0D1218" opacity="1.000000" stroke="none" 
	d="
M671.724487,373.871399 
	C672.694458,381.072327 673.751465,388.143066 673.745911,395.213013 
	C673.734375,409.758728 669.550903,423.430298 664.186707,436.845856 
	C657.637939,453.224152 648.403564,468.016724 638.111206,482.622528 
	C634.706482,480.152832 631.259399,477.644592 628.349243,474.619812 
	C622.281921,468.313446 616.919373,461.278229 610.512207,455.359894 
	C596.333191,442.262756 581.705261,429.650757 567.217346,416.889862 
	C564.446228,414.449127 561.477173,412.233002 558.398804,409.226562 
	C556.687256,400.474365 555.378174,392.364563 553.620789,384.353088 
	C550.557495,370.388062 547.401306,356.437714 543.928284,342.570312 
	C541.694885,333.652435 538.825317,324.893921 536.240845,316.063965 
	C549.334351,315.633026 562.464050,314.384003 575.512939,314.961151 
	C595.529785,315.846405 615.054749,319.832672 633.320862,328.598663 
	C635.379456,329.586609 637.284668,330.894135 639.626831,332.064148 
	C639.229248,338.925507 638.335083,345.562439 641.054016,352.476257 
	C646.151978,365.439636 655.320984,372.084381 668.989929,373.031799 
	C669.782654,373.086761 670.550903,373.496368 671.724487,373.871399 
z"/>
<path fill="#0D1218" opacity="1.000000" stroke="none" 
	d="
M179.789352,328.774658 
	C183.475006,336.064148 201.120758,343.396393 209.879318,341.291412 
	C224.338364,337.816437 233.200424,329.721924 236.690735,315.010010 
	C249.954239,315.095428 263.079132,315.547089 276.540222,316.340820 
	C274.543671,323.704193 271.771759,330.614624 269.966370,337.768982 
	C265.748444,354.483337 261.994659,371.314819 257.774963,388.289429 
	C257.586060,389.345551 257.675110,390.211090 257.615967,391.472321 
	C256.715302,397.563354 255.962830,403.258728 255.011826,409.238098 
	C253.399048,410.915833 252.082825,412.428925 250.554276,413.683319 
	C242.296585,420.459778 233.926956,427.100861 225.717438,433.934631 
	C221.151672,437.735229 216.717117,441.709076 212.409348,445.800629 
	C204.266296,453.534821 196.112091,461.267761 188.252075,469.285095 
	C184.130035,473.489746 180.621384,478.295715 176.835709,482.830109 
	C174.941132,481.304077 172.445648,480.144745 171.253021,478.190369 
	C165.165390,468.214508 158.811218,458.327820 153.694794,447.850983 
	C146.985596,434.112640 141.392288,419.951691 139.681793,404.386169 
	C138.322083,392.012817 138.532669,379.986206 142.281357,368.147797 
	C143.466690,364.404510 145.073944,360.636353 147.254059,357.394684 
	C155.489655,345.149048 165.510925,334.780396 179.789352,328.774658 
z"/>
<path fill="#267DB7" opacity="1.000000" stroke="none" 
	d="
M176.887726,483.213684 
	C180.621384,478.295715 184.130035,473.489746 188.252075,469.285095 
	C196.112091,461.267761 204.266296,453.534821 212.409348,445.800629 
	C216.717117,441.709076 221.151672,437.735229 225.717438,433.934631 
	C233.926956,427.100861 242.296585,420.459778 250.554276,413.683319 
	C252.082825,412.428925 253.399048,410.915833 255.347870,409.186096 
	C263.344482,403.136963 270.806519,397.423828 278.618164,391.778992 
	C280.185547,391.419281 281.533844,391.199127 282.599762,390.529480 
	C289.407745,386.252411 296.018433,381.645996 302.947815,377.580505 
	C317.721130,368.912994 332.537048,360.304688 347.555054,352.072601 
	C356.814484,346.997040 366.478790,342.660126 375.961304,337.991547 
	C383.062164,340.379486 390.179047,342.721283 397.255920,345.178314 
	C400.043549,346.146149 402.741821,347.371246 405.727051,348.728088 
	C399.561615,351.560730 392.927551,353.703766 386.778412,356.807587 
	C364.919830,367.840912 342.888489,378.603271 321.584320,390.639557 
	C306.275574,399.288605 291.998779,409.770233 277.331726,419.539551 
	C275.862640,420.518066 274.879913,422.226776 273.060913,423.841248 
	C264.913055,429.760620 257.375763,435.435394 249.560394,441.287903 
	C245.833328,444.212036 242.184875,446.745117 238.974106,449.746429 
	C230.646378,457.530884 222.532028,465.543121 214.286255,473.416016 
	C211.916672,475.678436 209.199371,477.598236 206.971436,479.983337 
	C200.839539,486.547821 194.882462,493.275604 188.856216,499.938751 
	C184.884064,494.491608 180.911911,489.044434 176.887726,483.213684 
z"/>
<path fill="#267DB7" opacity="1.000000" stroke="none" 
	d="
M636.086670,518.738831 
	C623.667969,532.040405 611.642273,545.396667 598.636108,557.718018 
	C588.615417,567.211121 577.302795,575.332214 566.693176,584.216736 
	C563.339905,587.024719 560.401611,590.328186 556.730286,593.713135 
	C555.080994,594.268982 553.772644,594.219666 552.901306,594.812500 
	C547.056396,598.789612 541.267212,602.852478 535.564148,607.029785 
	C534.746277,607.628784 534.489563,608.993713 533.610229,609.923828 
	C525.414307,614.624207 517.662231,619.544250 509.729919,624.154053 
	C496.654572,631.752686 483.594086,639.395447 470.274445,646.548706 
	C461.188538,651.428162 451.645813,655.452209 442.367157,659.981323 
	C440.154205,661.061462 438.180115,662.630920 436.096161,663.975281 
	C428.669159,661.306763 421.211639,658.718445 413.837860,655.910156 
	C412.125122,655.257812 410.697876,653.855774 409.096863,652.449768 
	C420.617065,646.849792 432.284119,641.815430 443.720123,636.301758 
	C466.214630,625.456482 488.086243,613.471313 508.854248,599.547058 
	C517.894958,593.485535 526.992859,587.508057 535.965881,581.348450 
	C537.150757,580.535095 537.748169,578.865784 539.188660,577.295044 
	C541.236511,576.440735 542.892883,576.146362 544.157898,575.280334 
	C548.584412,572.250000 552.918579,569.079224 557.203003,565.849121 
	C559.867126,563.840515 562.378174,561.628723 565.161316,559.271240 
	C574.486023,550.713135 583.909119,542.695190 592.650513,533.992554 
	C603.058167,523.630981 612.880676,512.681763 622.956665,501.987152 
	C624.841919,503.684204 627.035706,505.146515 628.544922,507.129700 
	C631.265320,510.704681 633.575867,514.591431 636.086670,518.738831 
z"/>
<path fill="#0D1218" opacity="1.000000" stroke="none" 
	d="
M189.019547,500.244385 
	C194.882462,493.275604 200.839539,486.547821 206.971436,479.983337 
	C209.199371,477.598236 211.916672,475.678436 214.286255,473.416016 
	C222.532028,465.543121 230.646378,457.530884 238.974106,449.746429 
	C242.184875,446.745117 245.833328,444.212036 249.644592,441.743469 
	C250.039978,442.686523 250.128296,443.354279 250.098129,444.016632 
	C249.420593,458.895050 248.102371,473.776489 248.188202,488.649933 
	C248.318832,511.288849 249.406921,533.922607 250.145294,556.556702 
	C250.186935,557.833069 250.743591,559.092590 251.060547,560.359985 
	C244.963394,555.430359 238.858017,550.510864 232.772034,545.567505 
	C228.956085,542.467896 225.059555,539.454651 221.403732,536.174683 
	C218.413849,533.492126 215.601166,530.583923 212.928757,527.581055 
	C204.955719,518.622070 197.090317,509.567352 189.019547,500.244385 
z"/>
<path fill="#0E131A" opacity="1.000000" stroke="none" 
	d="
M622.855347,501.654053 
	C612.880676,512.681763 603.058167,523.630981 592.650513,533.992554 
	C583.909119,542.695190 574.486023,550.713135 564.771362,559.277954 
	C563.500549,558.656982 562.200256,557.751099 562.254395,556.934875 
	C562.479431,553.536865 563.347412,550.179871 563.550476,546.782227 
	C564.090027,537.753296 564.640564,528.714172 564.760437,519.673462 
	C564.958740,504.725037 564.823853,489.772247 564.824341,474.821289 
	C564.824402,473.658875 564.853027,472.490540 564.753052,471.334930 
	C563.910400,461.601044 563.040894,451.869476 562.179504,442.137207 
	C564.159424,443.243500 566.403992,444.048645 568.069824,445.512421 
	C573.112976,449.943970 577.919373,454.644135 582.840820,459.215118 
	C591.077148,466.864960 599.667786,474.170746 607.464844,482.243713 
	C613.102112,488.080444 617.695251,494.925568 622.855347,501.654053 
z"/>
<path fill="#0E1219" opacity="1.000000" stroke="none" 
	d="
M436.442719,664.128357 
	C438.180115,662.630920 440.154205,661.061462 442.367157,659.981323 
	C451.645813,655.452209 461.188538,651.428162 470.274445,646.548706 
	C483.594086,639.395447 496.654572,631.752686 509.729919,624.154053 
	C517.662231,619.544250 525.414307,614.624207 533.625061,610.345459 
	C529.110962,630.046265 524.271606,649.258728 519.289246,668.434082 
	C518.098755,673.015686 516.431580,677.473450 514.983643,681.988159 
	C513.902893,682.269104 512.739624,682.964539 511.753906,682.768250 
	C499.057404,680.240601 486.299072,677.940247 473.735992,674.851746 
	C463.550781,672.347839 453.616425,668.829590 443.551025,665.827637 
	C441.340057,665.168274 439.045380,664.789490 436.442719,664.128357 
z"/>
<path fill="#0E1219" opacity="1.000000" stroke="none" 
	d="
M436.641876,339.052673 
	C439.883331,337.297394 443.212677,335.131439 446.860901,334.146271 
	C461.689575,330.141815 476.595032,326.413483 491.515686,322.761078 
	C498.629608,321.019623 505.840973,319.676331 513.510315,318.482971 
	C518.526917,333.338440 523.382446,347.769287 527.437866,362.421539 
	C530.215149,372.455963 531.878418,382.798767 534.039673,393.003693 
	C503.072296,372.499695 471.379669,353.305084 436.641876,339.052673 
z"/>
<path fill="#0E131A" opacity="1.000000" stroke="none" 
	d="
M374.819519,664.446594 
	C374.435699,664.775635 374.083038,664.766968 373.314026,664.627075 
	C372.550385,664.618042 372.203156,664.740356 371.855896,664.862610 
	C355.598633,669.290710 339.384796,673.887939 323.065399,678.073853 
	C315.174774,680.097717 307.085876,681.348755 298.673401,682.538696 
	C297.936218,681.031738 297.631134,679.929871 297.285645,678.840820 
	C293.197235,665.953674 288.731689,653.170898 285.133392,640.148499 
	C282.493561,630.594971 280.988861,620.727844 278.978271,611.000427 
	C282.686340,612.641052 286.596832,613.939819 290.061737,615.991150 
	C298.046082,620.718201 305.667633,626.064575 313.702606,630.698120 
	C327.074402,638.409119 340.586761,645.884949 354.179688,653.200073 
	C359.978241,656.320557 366.153656,658.735291 372.096100,661.598816 
	C373.168488,662.115479 373.940186,663.256287 374.819519,664.446594 
z"/>
<path fill="#0E131A" opacity="1.000000" stroke="none" 
	d="
M375.736938,337.683594 
	C366.478790,342.660126 356.814484,346.997040 347.555054,352.072601 
	C332.537048,360.304688 317.721130,368.912994 302.947815,377.580505 
	C296.018433,381.645996 289.407745,386.252411 282.599762,390.529480 
	C281.533844,391.199127 280.185547,391.419281 278.761169,391.470917 
	C278.954498,390.204376 279.509552,389.351044 279.731140,388.418488 
	C282.981567,374.738708 285.924988,360.979462 289.493896,347.384155 
	C291.987244,337.885925 295.322113,328.608612 298.281128,319.232635 
	C304.338928,320.162415 310.429749,320.919220 316.445557,322.068726 
	C322.941589,323.310059 329.425598,324.701721 335.811249,326.414154 
	C347.338409,329.505402 358.785675,332.894043 370.273621,336.132416 
	C371.999603,336.618988 373.765259,336.964752 375.736938,337.683594 
z"/>
<path fill="#3994CE" opacity="1.000000" stroke="none" 
	d="
M562.091553,441.784607 
	C563.040894,451.869476 563.910400,461.601044 564.753052,471.334930 
	C564.853027,472.490540 564.824402,473.658875 564.824341,474.821289 
	C564.823853,489.772247 564.958740,504.725037 564.760437,519.673462 
	C564.640564,528.714172 564.090027,537.753296 563.550476,546.782227 
	C563.347412,550.179871 562.479431,553.536865 562.254395,556.934875 
	C562.200256,557.751099 563.500549,558.656982 564.567993,559.514893 
	C562.378174,561.628723 559.867126,563.840515 557.203003,565.849121 
	C552.918579,569.079224 548.584412,572.250000 544.157898,575.280334 
	C542.892883,576.146362 541.236511,576.440735 539.375000,576.997925 
	C539.687988,572.132507 540.646362,567.286621 541.024658,562.395813 
	C541.661316,554.164917 542.123352,545.910095 542.314758,537.657349 
	C542.807007,516.431946 543.587463,495.195892 543.310120,473.976410 
	C543.145020,461.349426 541.215088,448.744141 540.041199,436.132568 
	C539.691101,432.371368 539.214600,428.621918 538.823303,424.437195 
	C541.299927,425.202271 544.066833,426.002594 546.136963,427.668732 
	C551.587524,432.055573 556.735291,436.818726 562.091553,441.784607 
z"/>
<path fill="#3994CE" opacity="1.000000" stroke="none" 
	d="
M251.172455,560.598572 
	C250.743591,559.092590 250.186935,557.833069 250.145294,556.556702 
	C249.406921,533.922607 248.318832,511.288849 248.188202,488.649933 
	C248.102371,473.776489 249.420593,458.895050 250.098129,444.016632 
	C250.128296,443.354279 250.039978,442.686523 249.922653,441.565735 
	C257.375763,435.435394 264.913055,429.760620 272.820984,424.067474 
	C272.057953,436.499420 270.413849,448.929016 269.907654,461.404816 
	C269.106628,481.148621 268.350647,500.944031 268.918152,520.678955 
	C269.433929,538.616028 271.742828,556.501221 273.246826,574.410583 
	C273.330231,575.403992 273.281952,576.408447 273.242126,577.881775 
	C265.887665,572.516235 258.585999,566.676697 251.172455,560.598572 
z"/>
<path fill="#3994CE" opacity="1.000000" stroke="none" 
	d="
M298.091248,319.025024 
	C295.322113,328.608612 291.987244,337.885925 289.493896,347.384155 
	C285.924988,360.979462 282.981567,374.738708 279.731140,388.418488 
	C279.509552,389.351044 278.954498,390.204376 278.411530,391.402649 
	C270.806519,397.423828 263.344482,403.136963 255.546417,408.902069 
	C255.962830,403.258728 256.715302,397.563354 257.835327,391.361298 
	C258.152863,389.936005 258.102905,389.017456 258.052917,388.098877 
	C261.994659,371.314819 265.748444,354.483337 269.966370,337.768982 
	C271.771759,330.614624 274.543671,323.704193 277.002350,316.341980 
	C284.052673,316.939819 290.977020,317.878601 298.091248,319.025024 
z"/>
<path fill="#3994CF" opacity="1.000000" stroke="none" 
	d="
M534.340454,393.148132 
	C531.878418,382.798767 530.215149,372.455963 527.437866,362.421539 
	C523.382446,347.769287 518.526917,333.338440 513.917114,318.432281 
	C520.978638,317.373932 528.135559,316.696503 535.766602,316.041534 
	C538.825317,324.893921 541.694885,333.652435 543.928284,342.570312 
	C547.401306,356.437714 550.557495,370.388062 553.620789,384.353088 
	C555.378174,392.364563 556.687256,400.474365 558.184937,408.995453 
	C550.328247,404.064880 542.484741,398.678741 534.340454,393.148132 
z"/>
<path fill="#3994CF" opacity="1.000000" stroke="none" 
	d="
M278.696777,610.804016 
	C280.988861,620.727844 282.493561,630.594971 285.133392,640.148499 
	C288.731689,653.170898 293.197235,665.953674 297.285645,678.840820 
	C297.631134,679.929871 297.936218,681.031738 298.274719,682.528320 
	C292.870178,683.785217 287.458771,684.697021 282.026428,685.459351 
	C280.641266,685.653748 279.189606,685.374329 277.414429,685.165649 
	C274.742340,678.361267 272.070648,671.802368 270.183105,665.025085 
	C266.705292,652.537842 263.309296,640.003479 260.593506,627.335632 
	C258.226166,616.293274 256.842529,605.039917 255.090729,593.440186 
	C260.295258,596.346008 265.573822,599.499023 270.517944,603.110046 
	C273.425018,605.233276 275.800629,608.084045 278.696777,610.804016 
z"/>
<path fill="#3994CF" opacity="1.000000" stroke="none" 
	d="
M515.205383,682.284302 
	C516.431580,677.473450 518.098755,673.015686 519.289246,668.434082 
	C524.271606,649.258728 529.110962,630.046265 533.987976,610.425781 
	C534.489563,608.993713 534.746277,607.628784 535.564148,607.029785 
	C541.267212,602.852478 547.056396,598.789612 552.901306,594.812500 
	C553.772644,594.219666 555.080994,594.268982 556.568237,594.020447 
	C555.802856,602.303223 555.277649,610.731995 553.382568,618.840637 
	C549.229065,636.612061 544.452881,654.240234 539.767883,671.883606 
	C538.562561,676.422607 536.751892,680.800842 535.136536,685.625000 
	C528.511536,684.858093 521.969299,683.719238 515.205383,682.284302 
z"/>
<path fill="#0E1218" opacity="1.000000" stroke="none" 
	d="
M1076.763672,478.486816 
	C1070.578003,498.272278 1056.031372,507.122009 1037.115479,509.927185 
	C1028.422607,511.216309 1019.553955,511.720795 1010.756287,511.822205 
	C988.443542,512.079346 966.125916,511.907623 943.411255,511.907623 
	C943.411255,479.262146 943.411255,446.740875 943.411255,414.034180 
	C943.749207,413.942169 944.192078,413.715179 944.634216,413.716370 
	C973.281555,413.794006 1001.929321,414.045624 1030.575928,413.947235 
	C1070.779419,413.809143 1083.649536,446.844360 1077.507080,475.169586 
	C1077.295532,476.144653 1077.091553,477.121399 1076.763672,478.486816 
z"/>
<path fill="#26537E" opacity="1.000000" stroke="none" 
	d="
M372.195007,664.885010 
	C372.203156,664.740356 372.550385,664.618042 373.048950,664.634155 
	C372.978210,664.817505 372.756165,664.862427 372.195007,664.885010 
z"/>
<path fill="#267DB7" opacity="1.000000" stroke="none" 
	d="
M503.938721,293.745789 
	C503.688385,293.909637 503.463470,293.761505 503.302612,293.283447 
	C503.550690,293.154572 503.749847,293.314697 503.938721,293.745789 
z"/>
<path fill="#EF7759" opacity="1.000000" stroke="none" 
	d="
M424.945496,439.986694 
	C440.944519,444.167755 453.677673,452.862946 463.827179,465.121552 
	C472.615143,475.735657 477.036011,488.229401 479.392700,501.912079 
	C481.530701,514.325073 479.074158,525.854858 475.428253,537.189331 
	C471.001038,550.952881 461.784851,561.639404 450.369904,570.365540 
	C435.835693,581.476074 419.295471,586.158203 401.136353,585.072021 
	C384.401276,584.071045 369.766327,577.706421 357.303772,566.616516 
	C346.580200,557.074158 338.915131,545.503723 335.216827,531.432373 
	C332.277710,520.249695 331.985809,509.045776 333.901428,497.691559 
	C336.641754,481.449127 344.367126,467.994141 356.440765,456.947296 
	C367.048279,447.241852 379.329315,441.108704 393.637756,438.741119 
	C404.097595,437.010376 414.316406,437.270691 424.945496,439.986694 
M402.635895,490.899750 
	C404.580475,490.551270 406.534698,490.248993 408.467712,489.845215 
	C413.411530,488.812500 417.240112,483.833344 416.798981,479.071686 
	C416.269348,473.355164 412.870697,470.171051 406.997955,469.858429 
	C397.393799,469.347229 388.852081,471.691711 381.076263,477.774017 
	C369.847168,486.557526 364.124939,497.854584 364.185272,511.917145 
	C364.211975,518.136719 369.171844,522.003174 375.523102,521.893494 
	C380.070282,521.814880 384.615814,517.220215 384.947479,512.051758 
	C385.654053,501.040710 390.800629,493.675354 402.635895,490.899750 
z"/>
<path fill="#267DB7" opacity="1.000000" stroke="none" 
	d="
M257.774963,388.289429 
	C258.102905,389.017456 258.152863,389.936005 257.983490,390.965607 
	C257.675110,390.211090 257.586060,389.345551 257.774963,388.289429 
z"/>
<path fill="#FDD2AC" opacity="1.000000" stroke="none" 
	d="
M402.222412,490.920532 
	C390.800629,493.675354 385.654053,501.040710 384.947479,512.051758 
	C384.615814,517.220215 380.070282,521.814880 375.523102,521.893494 
	C369.171844,522.003174 364.211975,518.136719 364.185272,511.917145 
	C364.124939,497.854584 369.847168,486.557526 381.076263,477.774017 
	C388.852081,471.691711 397.393799,469.347229 406.997955,469.858429 
	C412.870697,470.171051 416.269348,473.355164 416.798981,479.071686 
	C417.240112,483.833344 413.411530,488.812500 408.467712,489.845215 
	C406.534698,490.248993 404.580475,490.551270 402.222412,490.920532 
z"/>
</svg>